<?xml version="1.0" standalone="no"?>
<!DOCTYPE svg PUBLIC "-//W3C//DTD SVG 1.1//EN" "http://www.w3.org/Graphics/SVG/1.1/DTD/svg11.dtd" >
<svg xmlns="http://www.w3.org/2000/svg">
<metadata></metadata>
<defs>
<font id="ardoraarrowsregularregular" horiz-adv-x="2062" >
<font-face units-per-em="2048" ascent="1638" descent="-410" />
<missing-glyph horiz-adv-x="72" />
<glyph horiz-adv-x="0" />
<glyph horiz-adv-x="682" />
<glyph unicode=" "  horiz-adv-x="72" />
<glyph unicode="&#x09;" horiz-adv-x="72" />
<glyph unicode="&#xa0;" horiz-adv-x="72" />
<glyph unicode="1" d="M136 58v1572q0 58 58 58h1714q56 0 56 -58v-1572q0 -56 -56 -56h-1714q-58 0 -58 56zM652 180h864v226h-266v1070h-288q-4 -52 -26 -86q-22 -36 -68 -56q-36 -18 -96 -26q-52 -8 -120 -8v-212h274v-682h-274v-226z" />
<glyph unicode="2" d="M136 58v1572q0 58 58 58h1714q56 0 56 -58v-1572q0 -56 -56 -56h-1714q-58 0 -58 56zM634 180h988v240h-566l44 33l68 51q36 30 75 62t79 68q120 112 182 222q60 108 60 226q0 182 -124 280q-124 100 -362 100q-122 0 -234 -26q-110 -26 -176 -52v-280h26q80 52 160 82 q92 32 164 32q104 0 158 -48q56 -48 56 -130q0 -76 -44 -146q-34 -62 -144 -174q-36 -34 -81 -74t-101 -84q-114 -94 -228 -174v-208z" />
<glyph unicode="3" d="M136 58v1572q0 58 58 58h1714q56 0 56 -58v-1572q0 -56 -56 -56h-1714q-58 0 -58 56zM616 258q72 -32 182 -54q110 -24 264 -24q142 0 232 28q98 28 164 80q70 52 108 130q34 80 34 166q0 76 -24 124q-24 44 -66 82q-42 34 -86 52q-54 16 -90 22v12q102 20 168 104 q66 80 66 184q0 78 -34 138q-34 58 -102 100q-56 32 -146 54q-86 20 -208 20t-238 -24q-124 -30 -186 -54v-270h30q86 50 180 78q92 28 170 28q28 0 76 -6q46 -8 76 -20t48 -36q20 -24 20 -60q0 -54 -20 -78q-22 -30 -54 -42q-38 -16 -86 -18q-32 -4 -114 -4h-72v-224h70h50 h56q62 -4 98 -16q42 -12 66 -42q26 -30 26 -84q0 -58 -20 -86q-14 -26 -48 -50q-40 -28 -96 -36q-30 -4 -56 -6t-50 -2q-78 0 -182 32q-98 32 -172 76h-34v-274z" />
<glyph unicode="4" d="M136 58v1572q0 58 58 58h1714q56 0 56 -58v-1572q0 -56 -56 -56h-1714q-58 0 -58 56zM526 480h626v-302h320v302h176v238h-176v758h-340l-606 -750v-246zM776 718l376 466v-466h-376z" />
<glyph unicode="5" d="M136 58v1572q0 58 58 58h1714q56 0 56 -58v-1572q0 -56 -56 -56h-1714q-58 0 -58 56zM628 258q54 -26 170 -52q104 -24 258 -24q130 0 232 30q102 32 180 96q68 60 108 146q36 84 36 184q0 114 -42 192q-44 74 -122 124q-60 34 -142 56q-78 20 -186 20h-34h-36 q-56 -4 -68 -4v206h594v242h-900v-714h38q24 6 55 13t67 13q68 12 146 12q58 0 118 -8q64 -10 110 -36q34 -24 52 -52q20 -38 20 -76q0 -56 -16 -84q-16 -30 -44 -54q-40 -36 -98 -44q-60 -14 -116 -14q-92 0 -178 32q-90 28 -166 76h-36v-280z" />
<glyph unicode="6" d="M136 58v1572q0 58 58 58h1714q56 0 56 -58v-1572q0 -56 -56 -56h-1714q-58 0 -58 56zM596 762q0 -156 40 -272q42 -116 116 -186q70 -66 160 -94q92 -30 204 -30q122 0 210 32q84 32 156 94q64 58 100 144q34 86 34 180q0 130 -42 206q-44 82 -110 130q-54 38 -118 54 q-60 18 -134 18q-84 0 -156 -24q-66 -24 -134 -62q16 138 108 218q88 80 250 80q64 0 122 -16q54 -12 78 -24h32v246q-12 0 -36 4t-60 8q-80 10 -134 10q-182 0 -312 -52q-134 -56 -214 -146q-82 -98 -122 -226q-38 -124 -38 -292zM918 714v26v22q2 14 2 28q42 14 74 20 q42 10 76 10q36 0 84 -10q42 -10 72 -32q30 -26 48 -62q18 -40 18 -100q0 -66 -16 -106q-14 -36 -40 -68q-28 -28 -58 -38q-34 -12 -62 -12q-36 0 -66 12q-38 12 -56 38q-36 34 -56 102q-20 72 -20 170z" />
<glyph unicode="7" d="M136 58v1572q0 58 58 58h1714q56 0 56 -58v-1572q0 -56 -56 -56h-1714q-58 0 -58 56zM628 1228h666l-608 -1048h372l588 1038v260h-1018v-250z" />
<glyph unicode="8" d="M136 58v1572q0 58 58 58h1714q56 0 56 -58v-1572q0 -56 -56 -56h-1714q-58 0 -58 56zM568 542q0 -76 30 -142q30 -70 94 -114q62 -52 162 -78q98 -30 236 -30q244 0 384 106q142 102 142 270q0 112 -62 196q-66 86 -194 134v6q114 48 168 116q56 66 56 158 q0 140 -130 228q-132 84 -360 84q-224 0 -356 -92q-138 -96 -138 -244q0 -98 52 -174q48 -76 158 -126v-6q-136 -56 -188 -126q-54 -70 -54 -166zM882 582q0 56 30 104q24 42 64 78q54 -18 88 -32q60 -22 80 -30q94 -40 122 -70q32 -36 32 -92q0 -46 -20 -70 q-16 -24 -48 -46q-24 -16 -62 -24q-48 -8 -62 -8q-98 0 -162 52q-62 50 -62 138zM918 1148q0 26 16 52q18 24 42 36q24 14 56 22q28 8 62 8q80 0 128 -38q48 -36 48 -100q0 -60 -16 -88q-18 -40 -54 -80q-48 12 -98 32q-22 6 -37 12t-27 12q-58 24 -90 54q-30 26 -30 78z " />
<glyph unicode="9" d="M136 58v1572q0 58 58 58h1714q56 0 56 -58v-1572q0 -56 -56 -56h-1714q-58 0 -58 56zM584 1024q0 -124 42 -204q36 -76 110 -130q56 -38 116 -52q66 -18 136 -18q88 0 154 22q52 16 136 64q-14 -80 -42 -136q-34 -58 -82 -94q-48 -38 -108 -52q-56 -16 -128 -16 q-84 0 -126 14q-46 10 -74 24h-32v-246q24 -8 94 -12q64 -8 134 -8q178 0 308 50q130 48 220 150q82 92 122 226q40 138 40 292q0 160 -38 270q-40 112 -116 184q-64 64 -154 94q-86 30 -208 30q-230 0 -364 -124q-140 -130 -140 -328zM908 1040q0 58 16 104q18 46 42 70 q28 28 58 40q40 12 62 12q26 0 66 -12q32 -14 58 -40q32 -36 54 -102q18 -66 18 -166v-31v-21q0 -10 -1 -16t-1 -10q-22 -12 -68 -20q-50 -10 -82 -10q-46 0 -86 10q-44 8 -70 32q-30 20 -48 62q-18 38 -18 98z" />
<glyph unicode="A" horiz-adv-x="2050" d="M136 846l1258 842v-632h560v-422h-560v-632z" />
<glyph unicode="B" horiz-adv-x="2060" d="M136 520l914 1168l912 -1168h-686v-518h-456v518h-684z" />
<glyph unicode="C" d="M136 634v422h562v632l1266 -842l-1266 -844v632h-562z" />
<glyph unicode="D" horiz-adv-x="2060" d="M136 1174h684v514h456v-514h686l-912 -1154z" />
<glyph unicode="E" horiz-adv-x="2060" d="M136 2l672 880l-610 806h464l394 -542l386 542h460l-610 -818l670 -868h-478l-434 582l-438 -582h-476z" />
<glyph unicode="F" d="M136 106v110h1828v-110h-1828zM136 400v110h1828v-110h-1828zM136 694v110h1512l14 -110h-1526zM136 988v112h720v-112h-720zM136 1282v112h1828v-112h-1828zM136 1576v112h1370v-112h-1370z" />
<glyph unicode="G" d="M136 2l528 1428l256 -672l232 260l812 -1016h-1828zM1558 1478q0 86 43 148t103 62t104 -62t44 -148t-44 -147t-104 -61t-103 61t-43 147z" />
<glyph unicode="H" horiz-adv-x="2122" d="M140 10v106v486h174v-374h488l2 -218h-562h-102zM140 1146v484v106h102h562l-2 -218h-488v-372h-174zM668 720v322h858v-322h-858zM1358 10l2 220l488 -2v374h174v-486v-106h-102h-562zM1358 1736h562h102v-106v-486h-174v374h-488z" />
<glyph unicode="I" horiz-adv-x="2060" d="M136 520l914 1168l912 -1168h-380v-518h-1068v518h-378z" />
<glyph unicode="J" horiz-adv-x="2060" d="M136 1168h378v520h1068v-520h380l-912 -1166z" />
<glyph unicode="K" d="M114 158q0 100 178 164q140 52 294 52q100 0 182 -24v936l1196 402v-1028q0 -108 -168 -182q-142 -62 -298 -62q-124 0 -214 32q-120 42 -120 124q0 100 180 164q146 52 294 52q100 0 188 -26v524l-920 -308v-726q0 -108 -166 -182q-150 -68 -294 -68q-120 0 -212 34 q-120 38 -120 122z" />
<glyph unicode="L" horiz-adv-x="1906" d="M284 2v1686h520l614 -966v966h398v-1686h-418l-716 1156v-1156h-398z" />
<glyph unicode="M" d="M136 2v1686h1828v-1686h-1828zM480 846q0 -296 167 -504t403 -208q234 0 402 208t168 504q0 294 -168 502t-402 208q-236 0 -403 -208t-167 -502zM750 402v884l768 -440z" />
<glyph unicode="N" horiz-adv-x="2060" d="M136 335q0 139 110 237l270 242q108 96 265 96t267 -96q108 -98 108 -237t-108 -235l-272 -242q-110 -96 -266 -96t-264 96q-110 96 -110 235zM308 376q0 -92 72 -156q72 -66 176 -66t176 66l180 160q68 60 73 147v12q0 79 -61 141h-6q-6 6 -4 6l-10 4q-2 0 -14 8 q-6 4 -18 10q-16 8 -27 17t-25 15q-51 16 -96 16q-92 0 -164 -64l-180 -160q-72 -64 -72 -156zM778 720l28 28l126 -74l134 120l-14 16l-36 28l-66 38l52 46l106 -92l132 118l-58 44l-42 54l22 18l12 12q14 12 41 26t39 2l42 -48q13 -14 13 -27q0 -18 -23 -37l-416 -372 q-5 -5 -11 -5q-13 0 -33 19l-44 40q-15 12 -15 24q0 11 11 22zM945 1133q13 117 109 201l270 242q108 96 265 96t265 -96q108 -98 108 -237t-108 -235l-270 -240q-106 -96 -254 -96h-6q-152 2 -260 98h-4l1 2l1 2l-8 -6q8 6 1 8t-9 8v1v3q-10 8 -23 16t-21 20 q-59 81 -59 177q0 18 2 36zM1116 1139q0 -91 72 -155q72 -66 175 -66t177 66l180 158q72 64 72 156t-72 158q-74 64 -177 64t-175 -64l-180 -160q-72 -66 -72 -157z" />
<glyph unicode="O" d="M136 2l8 1298q0 70 22 118t70 48h42q32 0 48 16q14 16 20 58l8 46q12 72 32 86q16 16 86 16h290q60 0 80 -16q18 -16 30 -78q6 -26 10 -62t22 -54q12 -12 62 -12h522q54 0 72 -30q20 -30 20 -112v-106h300q80 0 84 -44q0 -12 -26 -92l-332 -1080h-1470zM250 100h1266 l348 1016v1v1q-8 -4 -6 -4t6 2v1v1h-5h-5l-1210 10q-42 0 -56 -12q-8 -8 0 -8t2 -24zM350 1324l26 -12l10 -26q2 -4 32 -10t64 -14l-106 50l2 -8l-8 -12zM490 1260q32 -10 54 -22l-4 10q-8 12 -23 11t-27 1zM562 1200zM1482 1218h44l-4 22q-10 50 -13 50q-1 0 -1 -10v-10v-7 q0 -45 -26 -45z" />
<glyph unicode="P" d="M136 122l320 516l1286 1050q212 -78 222 -350l-1292 -1048zM310 318l168 278q44 40 90 40q10 0 16 -6t6 -18q-4 -42 -62 -98q62 34 88 34q18 0 28 -10q10 -14 10 -30q-4 -38 -58 -96q64 34 90 34q14 0 20 -6q6 -8 4 -18q0 -30 -64 -90l-286 -90zM566 668q24 4 26 4 q36 -4 36 -40l-2 -10l1030 836q-16 12 -27 29t-25 25zM650 582q42 -12 42 -62l1016 830q-16 42 -36 66zM716 480q18 -4 24 -12q8 -8 8 -24q0 -18 -14 -42l980 804q32 56 43 110q1 4 1 7q0 9 -8 10q-23 0 -114 -83zM1640 1538l72 60q124 -64 154 -272l-70 -56 q-18 102 -56 162q-42 66 -100 106z" />
<glyph unicode="Q" d="M136 858q0 200 268 343t646 143t646 -143t268 -343q0 -204 -268 -346t-646 -142t-646 142t-268 346zM298 858q0 -168 220 -285t532 -117t532 117t220 285q0 164 -220 282t-532 118t-532 -118t-220 -282zM758 878q0 114 82 195t196 81t196 -81t82 -195q0 -116 -82 -197 t-196 -81t-196 81t-82 197zM824 1058l12 12l18 18l24 18q2 2 14 8q8 7 16 7q11 0 20 -14q16 -23 16 -49q0 -60 -60 -60q-26 0 -51 21q-15 13 -15 24q0 8 6 15z" />
<glyph unicode="R" d="M136 2v326h728v-326h-728zM458 328h66l402 932h-38zM558 1260v428h954v-428h-954zM1188 1260l382 -638h66l-410 638h-38zM1236 296v326h728v-326h-728z" />
<glyph unicode="S" d="M136 2v334h420v-334h-420zM140 1332v126l90 -54l10 -26l-66 2l-14 -8l16 -26zM172 1052l38 -18l-24 -24zM180 40h336v248h-336v-248zM210 70v28h172v-28h-172zM210 144v28h262v-28h-262zM210 218v28h222v-28h-222zM226 990l4 20l54 -34l22 16l26 -36l-10 -24l-30 32 l-20 -16zM246 1242l38 56l-26 30l-12 112l44 34l208 -34l-38 44l8 56l210 122l80 -6l-72 -122l96 -120l-32 -48l-56 14l8 54h-20l-8 -36l6 -32l-44 6l-22 -48l16 -18l30 -14l28 -50l10 50l-6 10v50l68 -18l54 -100l-76 -66v-36l-14 4l-12 -20l2 -28l-30 -38l8 -44h-14 l-14 30h-48l-18 -50l18 -26h10l16 16l12 -10l-6 -36l18 -2l4 -42h32l30 20l22 -12l40 -2l2 -40h34l4 -48h22l58 -58l-16 -32l-6 -60l-132 -216q6 -22 4 -42l-18 -28l16 -30l-12 -22l-36 60v96l5 47t17 143l-28 18l-30 118l12 28v34h-30l-12 40l-18 -2l-62 52l-20 36h-22 l-66 132l2 66l-22 50l-16 -6l-10 34l14 -2l-34 52l-42 10zM386 642l16 28l18 -36l-14 -12zM424 604l12 20l20 -20l-14 -20zM672 966l4 26l34 -16l-4 -20zM706 1004v22l18 -36zM720 950l4 16l62 -38l-10 -8zM730 1560l48 90l196 38l46 -60l-24 -34l-6 -84l-38 -92l-64 -30 l-14 -56l-28 2l-34 76l-12 104l-26 30l-28 -14zM968 1394l42 16l20 -26l-40 -44zM1004 996l78 102l44 6l10 -18l-2 -18l34 -16l18 24l12 -18l48 -2l8 12v42l-18 -42l-26 54l4 -54l-24 28l-4 40l-30 50l-4 -6l22 -50l-14 -34l-8 40l-26 28l-14 -20l-8 8l-50 -70l-18 74l34 -4 l8 24l-14 20l22 26l14 4l22 34l-6 26l14 8l8 -20l44 4l2 20l48 26l-10 16l-30 -16l-8 30l22 26l-14 20l-28 -54l10 -14l-2 -34l-28 -12l-6 26l-30 -6l2 40l50 102l54 20l82 -30l-14 -34l-32 4l20 -34l64 64h42l-30 48l34 52l46 30l6 -24l-44 -22l-24 -42l50 -46l-8 24l30 40 l54 -20l8 26l100 56l66 -22l-50 -44l156 -24l26 40l12 -36l74 -10l22 -16l60 10v-126l-60 -10l2 -34l-36 -72l-8 66l20 40l-70 -10l-40 -34l-6 -26l30 10l2 -64l-20 -2l-6 -32l-40 -38l6 -28l-26 -26l-8 46l-18 -14l4 -90l-74 -66l20 -44l-32 -30l-14 40l-6 -4l6 -42l26 -28 l-8 -14l-18 8l4 -20l16 -4l10 -38l38 -24l2 -20l-46 12l-64 108l28 -4l-38 122v34h-10l-6 -30l-36 -42v-42l-28 -12l-18 76l-12 6l2 44l-104 30l16 -44l18 10l20 -30l-20 -36l-46 -26l-48 140h-14v-28l32 -100l24 -26l36 4l-66 -148l8 -16l2 -50l-20 -22l-2 -36l-52 -96 l-42 2l-36 152l10 24v42l-30 54l14 14l-32 30l-60 4l-34 46zM1024 1244l12 34l16 -30l-12 -22zM1048 1292l14 22l8 -32l20 -22l-2 -28h-32l10 28zM1138 1104l10 20l4 -28zM1220 1152l4 -22l16 20h14l10 -2q10 -2 28 -4l-14 40l-16 2l2 -18h-14l-10 22zM1292 632l10 42l28 34 l10 -12l-20 -94zM1340 1164l2 -72l18 8l-14 42l12 26l-6 10zM1386 1168l2 -28l12 2l-2 26h-12zM1634 780l2 40l28 44l20 -44l-18 -52zM1650 568v56l92 94l44 -44l2 36l14 4l54 -126l-38 -106l-30 4l-58 66l-2 -16l-72 -24l8 46zM1684 768l16 52l16 -10l-16 -46zM1728 1066 l46 38l14 68l26 -24l-28 -70l-44 -34zM1738 804l86 -32l8 -48l-90 30zM1780 1046l8 -2l20 -44l-16 -16zM1818 1184l34 24l12 -18l-36 -22zM1910 432l40 66l-16 38l8 20l16 -34l4 -66l-32 -60l-16 2z" />
<glyph unicode="T" d="M136 2v88h1828v-88h-1828zM136 90v1598h86v-1598h-86zM232 1186v30h156v-30h-156zM264 134v84l408 792l262 -378l994 676v-110l-1000 -672l-242 340l-386 -732h-36zM436 1186v30h156v-30h-156zM640 1186v30h156v-30h-156zM844 1186v30h156v-30h-156zM1048 1186v30h156 v-30h-156zM1252 1186v30h156v-30h-156zM1456 1186v30h156v-30h-156zM1660 1186v30h132l-38 -30h-94zM1788 132v158h28v-158h-28zM1788 336v158h28v-158h-28zM1788 540v156h28v-156h-28zM1788 744v158h28v-158h-28zM1788 948v156h28v-156h-28z" />
<glyph unicode="U" d="M136 2q36 180 56 370t92 348h724h726l66 -40l164 -678h-1828zM480 2h54v140h-54v-140zM590 1242q0 184 130 315t316 131q184 0 314 -131t130 -315q0 -186 -130 -315t-314 -129q-186 0 -316 129t-130 315zM1608 2h52v140h-52v-140z" />
<glyph unicode="V" d="M136 504v678h344l544 502v-1682l-544 502h-344zM1234 504q0 54 66 54q28 0 268 -112q70 -36 141 -70t143 -66q34 -16 34 -46q0 -54 -66 -54q-40 0 -268 112q-72 34 -143 67t-141 69q-34 14 -34 46zM1234 896q0 54 66 54h598q66 0 66 -54q0 -52 -66 -52h-598q-66 0 -66 52 zM1234 1282q0 30 34 46q140 64 284 136q236 112 268 112q66 0 66 -56q0 -28 -34 -46q-72 -34 -143 -68t-141 -68q-236 -110 -268 -110q-66 0 -66 54z" />
<glyph unicode="W" d="M136 708v284l658 696v-304l-522 -536l522 -542v-304zM1308 2v304l520 542l-520 536v304l656 -696v-284z" />
<glyph unicode="X" d="M136 504v1184h1828v-1184h-1828zM284 644h1532v904h-1532v-904zM370 944q0 110 108 110t108 -110q0 -108 -108 -108t-108 108zM370 1308q0 108 108 108t108 -108t-108 -108t-108 108zM554 102l384 382l380 -382h-764zM616 908v74h1130v-74h-1130zM616 1270v74h1130v-74 h-1130zM644 2v98h586v-98h-586z" />
<glyph unicode="Y" horiz-adv-x="2090" d="M148 280q-17 30 -17 55q0 44 53 75l644 372q31 19 56 19q44 0 74 -53l78 -134q17 -30 17 -55q0 -46 -53 -75l-644 -372q-31 -18 -57 -18q-44 0 -73 52zM916 1112q38 238 216 376q138 106 297 106q49 0 99 -10q216 -44 340 -238q96 -152 96 -329q0 -51 -8 -105 q-40 -240 -218 -376q-135 -107 -293 -107q-49 0 -101 11q-218 38 -340 238q-98 151 -98 324q0 54 10 110zM1020 1092q-7 -44 -7 -86q0 -140 77 -260q98 -160 272 -192q40 -8 78 -8q126 0 238 86q144 108 174 300q6 41 6 81q0 139 -76 265q-104 160 -274 190q-42 9 -82 9 q-125 0 -232 -85q-144 -112 -174 -300z" />
<glyph unicode="Z" horiz-adv-x="2122" d="M148 870q0 358 274 614q276 252 662 252q388 0 664 -252q274 -256 274 -614t-290 -622l266 -246h-664v614l264 -246q236 212 236 500q0 284 -220 490q-222 204 -530 204q-312 0 -528 -204q-220 -204 -220 -490q0 -276 220 -490l-134 -124q-274 270 -274 614z" />
<glyph unicode="a" d="M136 268q0 92 50 178l624 1084q88 158 240 158q150 0 240 -158l624 -1084q50 -86 50 -178q0 -112 -68 -188q-70 -78 -170 -78h-1350q-100 0 -172 78q-68 76 -68 188zM336 272q0 -100 182 -100h1064q182 0 182 100q0 70 -80 210l-462 790q-110 190 -172 190 q-64 0 -174 -190l-460 -790q-80 -140 -80 -210zM932 1206q0 56 34 100q30 44 84 44q50 0 86 -44q36 -42 36 -100q0 -68 -48 -274q-46 -216 -46 -374h-54q0 150 -46 380t-46 268zM934 354q0 46 36 82q30 34 82 34q48 0 80 -34q34 -38 34 -82q0 -48 -34 -82t-82 -34 q-46 0 -82 34q-34 34 -34 82z" />
<glyph unicode="b" horiz-adv-x="1900" d="M284 1376v132q0 68 80 98q214 82 682 82q466 0 686 -82q78 -30 78 -98v-132q0 -48 -54 -78q-12 -8 -22 -14v-1038q0 -114 -74 -148q-204 -96 -614 -96q-408 0 -612 96q-74 36 -74 148v1038q-10 6 -22 14q-54 30 -54 78zM360 1414q0 -180 686 -180q688 0 688 180v32 q-134 -48 -302 -70q-86 -12 -183 -18t-203 -6t-202 6t-180 18q-166 22 -304 70v-32zM360 1516q0 -46 204 -78q196 -32 484 -32t484 32q202 32 202 80q0 40 -218 80q-216 36 -470 36q-260 0 -470 -38q-216 -36 -216 -80zM438 250q0 -100 88 -128q186 -66 520 -66 q336 0 522 66q88 28 88 128v1004q-26 -6 -55 -14t-59 -14v-912l-76 -36v934q-110 -16 -228 -22v-912h-78v912q-46 -2 -75 -3t-39 -1t-38 1t-76 3v-912l-76 -2v914q-120 6 -228 22v-934l-76 36v912q-32 6 -61 14t-53 14v-1004zM956 1534q0 16 92 16q90 0 90 -16t-90 -16 q-92 0 -92 16z" />
<glyph unicode="c" horiz-adv-x="1906" d="M284 2v26v28q10 -30 23 -34t31 -20h-28h-26zM284 56v554v554q23 48 73 48q6 0 13 -1q17 -2 30 -2q33 0 38 13q26 226 205 330t383 120h14h16q206 -18 377 -124t207 -328q17 -17 45 -17q19 0 43 8q14 4 26 4q39 0 58 -47q0 -276 2 -552t2 -552v-3v-1q-16 -16 -21 -31 t-31 -23l-1 -2l-1 -2h-714h-710q-18 16 -31 20t-23 34zM558 1214h181t329 1t315 2t141 3q-18 126 -117 204t-211 112q-76 15 -151 15q-100 0 -199 -27q-172 -48 -266 -216q-6 -14 -20 -48q-8 -18 -8 -30q0 -10 6 -16zM855 868q23 -86 119 -134q5 -30 5 -69q0 -91 -29 -230 q-42 -199 -52 -331q0 -2 1 -2h1h148h150l1 1q1 1 1 3q-20 150 -50 317t-30 317q102 68 107 153v15q0 75 -45 130q-50 60 -132 72q-11 2 -22 2q-70 0 -134 -68q-45 -66 -45 -129q0 -24 6 -47zM900 102h148h150h-149h-149zM1762 2h26h28v29v29q-16 -16 -21 -31t-31 -23v-1z M1812 1168l1 -1t3 -1v-551v-551q0 276 -2 552t-2 552z" />
<glyph unicode="d" horiz-adv-x="1902" d="M284 1108l382 370v-296h534q252 0 434 -172q178 -176 178 -418q0 -246 -180 -416q-180 -174 -432 -174h-84v148h84q190 0 324 130q134 128 134 312t-134 314q-132 128 -324 128h-534v-294z" />
<glyph unicode="f" horiz-adv-x="1962" d="M140 1198q0 30 10 68l190 -184l186 182l-190 186q40 10 70 10q104 0 176 -72t72 -172q0 -32 -10 -68l246 -240l352 332l172 -166l-338 -348l232 -228q48 8 72 8q102 0 174 -72q72 -68 72 -170q0 -32 -10 -68l-190 184l-186 -182l190 -186q-40 -10 -70 -10q-104 0 -176 70 q-70 72 -70 174q0 32 10 72l-228 224l-524 -534l-216 212l546 512l-240 236q-48 -12 -76 -12q-100 0 -174 72q-72 68 -72 170zM852 1480q70 92 146 92h150q90 0 164 -74l372 -364l44 44l142 -140l-240 -234l-140 140l38 38l-374 366q-32 30 -62 71t-78 41q-34 0 -83 16 q-28 9 -50 9q-16 0 -29 -5zM1420 1414l32 32l172 -168l-34 -32z" />
<glyph unicode="g" horiz-adv-x="1902" d="M284 570q120 126 218 126q84 0 190 -230l32 -78q184 314 478 610q144 148 306 274t300 206l4 -80q-234 -174 -526 -546q-288 -370 -438 -690l-68 -80q-40 -48 -87 -55t-65 -25q-18 58 -62 170l-32 72q-72 162 -122 228q-58 74 -128 98z" />
<glyph unicode="h" horiz-adv-x="2106" d="M140 192l568 446l76 -14l34 26l-12 24l-14 30l-10 24l-10 30l-10 30l-10 30l-6 32l-10 30l-2 16l-2 18l2 10l-2 18l-2 16l-4 16l4 18l-2 16l2 16l-2 16l2 16l-2 18l2 14l2 12l4 20l2 18l2 14l4 16l2 22l4 16l8 20l2 16l6 16l8 14l4 22l8 14l6 16l6 14l8 16l8 14l6 16 l8 16l12 14l8 14l6 16l12 14l8 14l10 8l12 16l8 14l12 8l12 14l22 24l24 22l28 18l22 22l28 18l26 16l14 8l12 2l14 8l18 8l10 10l16 2l16 8l14 2l16 2l16 8l14 4h16l14 4l16 2l14 2l16 4l14 2l20 -4l14 2l16 2l14 -2l20 -4l14 4l20 -6l14 -2l14 -2l18 -4l14 -4l20 -2l12 -8 l14 -4l20 -4l14 -8l12 -8l16 -2l16 -10l14 -8l14 -8l14 -8l12 -8l14 -8l14 -8l12 -14l14 -8l12 -8l14 -14l12 -8l8 -12l14 -14l12 -14l8 -6l14 -14l20 -26l20 -26l14 -30l20 -26l16 -30l14 -30l8 -18l2 -12l8 -18l6 -18l2 -12l8 -18l6 -18l4 -16l2 -18l8 -16v-18l4 -16 l2 -18l2 -16l2 -18l2 -16l2 -16l-2 -22v-16l4 -18l-4 -16l-2 -20l2 -18l-4 -20l-2 -18l-2 -14l-4 -22l-2 -16l-4 -22l-8 -14l-2 -16l-4 -22l-6 -14l-8 -16l-2 -16l-8 -20l-8 -16l-6 -14l-8 -16l-6 -14l-8 -16l-8 -14l-12 -14l-6 -16l-8 -14l-12 -16l-12 -8l-6 -14l-12 -14 l-12 -10l-6 -14l-12 -14l-24 -24l-22 -18l-28 -20l-22 -18l-28 -22l-28 -16l-14 -4l-12 -8l-16 -8l-14 -8l-12 -4l-16 -8l-14 -2l-16 -8l-16 -2l-14 -2l-16 -8l-16 -2l-14 -4l-16 -2l-14 -2l-16 -4l-18 6l-16 -4l-14 -2l-14 2l-20 -2l-14 4l-16 2h-20l-14 2l-18 4l-14 2 l-14 4l-14 8l-14 2l-14 4l-14 2l-14 8l-14 4l-14 6l-8 8l-14 4l-14 8l-12 6l-14 10l-14 8l-8 8l-26 14l-22 22l-22 16l-22 20l-20 20l-20 26l-18 20l-16 26l-32 -26l-14 -92l-568 -442zM922 974l6 -28l2 -22l6 -22l6 -24l6 -24l6 -22l6 -24l12 -18l6 -24l12 -18l12 -20 l16 -20l12 -18l10 -18l18 -14l16 -20l12 -14l18 -14l22 -16l18 -14l18 -10l18 -8l22 -10l18 -10l24 -10l24 -4l18 -4l24 -4l24 -6l20 2h24l20 2h24l20 2l20 8l22 6l20 8l20 6l22 12l16 8l22 12l16 14l16 14l18 12l16 14l18 18l16 12l14 20l12 20l12 18l14 20l12 20l8 20 l10 26l8 20l8 26l8 20l4 28l6 26l2 20l4 26v28v24l-2 28l-2 20v22l-6 24l-8 22l-6 24l-6 24l-6 22l-10 24l-12 20l-12 18l-10 24l-12 18l-12 14l-18 20l-10 18l-18 14l-18 16l-16 14l-18 14l-18 14l-18 10l-22 10l-18 8l-24 10l-18 10l-24 4l-22 6l-20 4l-24 4l-24 -2h-20 h-24l-20 -2l-20 -2l-20 -8l-26 -6l-20 -6l-16 -8l-22 -6l-20 -14l-18 -12l-14 -8l-22 -12l-18 -18l-16 -14l-12 -14l-18 -18l-12 -20l-14 -20l-12 -18l-14 -20l-12 -20l-8 -20l-12 -20l-10 -24l-4 -22l-8 -26l-4 -26l-4 -22l-4 -24l-4 -28l2 -22l-4 -26v-24zM1026 968v114 h270v272h116v-272h272v-114h-272v-274h-116v274h-270z" />
<glyph unicode="i" horiz-adv-x="2090" d="M202 254q0 60 43 105t107 45h1490q60 0 105 -45t45 -105q0 -64 -45 -108t-105 -44h-1490q-64 0 -107 44t-43 108zM202 876q0 60 43 105t107 45h1490q60 0 105 -45t45 -105q0 -64 -45 -108t-105 -44h-1490q-64 0 -107 44t-43 108zM202 1498q0 60 43 105t107 45h1490 q60 0 105 -45t45 -105q0 -64 -45 -108t-105 -44h-1490q-64 0 -107 44t-43 108z" />
<glyph unicode="j" horiz-adv-x="2106" d="M140 192l568 446l76 -14l34 26l-12 24l-14 30l-10 24l-10 30l-10 30l-10 30l-6 32l-10 30l-2 16l-2 18l2 10l-2 18l-2 16l-4 16l4 18l-2 16l2 16l-2 16l2 16l-2 18l2 14l2 12l4 20l2 18l2 14l4 16l2 22l4 16l8 20l2 16l6 16l8 14l4 22l8 14l6 16l6 14l8 16l8 14l6 16 l8 16l12 14l8 14l6 16l12 14l8 14l10 8l12 16l8 14l12 8l12 14l22 24l24 22l28 18l22 22l28 18l26 16l14 8l12 2l14 8l18 8l10 10l16 2l16 8l14 2l16 2l16 8l14 4h16l14 4l16 2l14 2l16 4l14 2l20 -4l14 2l16 2l14 -2l20 -4l14 4l20 -6l14 -2l14 -2l18 -4l14 -4l20 -2l12 -8 l14 -4l20 -4l14 -8l12 -8l16 -2l16 -10l14 -8l14 -8l14 -8l12 -8l14 -8l14 -8l12 -14l14 -8l12 -8l14 -14l12 -8l8 -12l14 -14l12 -14l8 -6l14 -14l20 -26l20 -26l14 -30l20 -26l16 -30l14 -30l8 -18l2 -12l8 -18l6 -18l2 -12l8 -18l6 -18l4 -16l2 -18l8 -16v-18l4 -16 l2 -18l2 -16l2 -18l2 -16l2 -16l-2 -22v-16l4 -18l-4 -16l-2 -20l2 -18l-4 -20l-2 -18l-2 -14l-4 -22l-2 -16l-4 -22l-8 -14l-2 -16l-4 -22l-6 -14l-8 -16l-2 -16l-8 -20l-8 -16l-6 -14l-8 -16l-6 -14l-8 -16l-8 -14l-12 -14l-6 -16l-8 -14l-12 -16l-12 -8l-6 -14l-12 -14 l-12 -10l-6 -14l-12 -14l-24 -24l-22 -18l-28 -20l-22 -18l-28 -22l-28 -16l-14 -4l-12 -8l-16 -8l-14 -8l-12 -4l-16 -8l-14 -2l-16 -8l-16 -2l-14 -2l-16 -8l-16 -2l-14 -4l-16 -2l-14 -2l-16 -4l-18 6l-16 -4l-14 -2l-14 2l-20 -2l-14 4l-16 2h-20l-14 2l-18 4l-14 2 l-14 4l-14 8l-14 2l-14 4l-14 2l-14 8l-14 4l-14 6l-8 8l-14 4l-14 8l-12 6l-14 10l-14 8l-8 8l-26 14l-22 22l-22 16l-22 20l-20 20l-20 26l-18 20l-16 26l-32 -26l-14 -92l-568 -442zM922 974l6 -28l2 -22l6 -22l6 -24l6 -24l6 -22l6 -24l12 -18l6 -24l12 -18l12 -20 l16 -20l12 -18l10 -18l18 -14l16 -20l12 -14l18 -14l22 -16l18 -14l18 -10l18 -8l22 -10l18 -10l24 -10l24 -4l18 -4l24 -4l24 -6l20 2h24l20 2h24l20 2l20 8l22 6l20 8l20 6l22 12l16 8l22 12l16 14l16 14l18 12l16 14l18 18l16 12l14 20l12 20l12 18l14 20l12 20l8 20 l10 26l8 20l8 26l8 20l4 28l6 26l2 20l4 26v28v24l-2 28l-2 20v22l-6 24l-8 22l-6 24l-6 24l-6 22l-10 24l-12 20l-12 18l-10 24l-12 18l-12 14l-18 20l-10 18l-18 14l-18 16l-16 14l-18 14l-18 14l-18 10l-22 10l-18 8l-24 10l-18 10l-24 4l-22 6l-20 4l-24 4l-24 -2h-20 h-24l-20 -2l-20 -2l-20 -8l-26 -6l-20 -6l-16 -8l-22 -6l-20 -14l-18 -12l-14 -8l-22 -12l-18 -18l-16 -14l-12 -14l-18 -18l-12 -20l-14 -20l-12 -18l-14 -20l-12 -20l-8 -20l-12 -20l-10 -24l-4 -22l-8 -26l-4 -26l-4 -22l-4 -24l-4 -28l2 -22l-4 -26v-24zM1026 968v114 h658v-114h-658z" />
<glyph unicode="k" horiz-adv-x="2058" d="M224 870q0 358 256 612q250 254 612 254q360 0 614 -254q254 -252 254 -612t-254 -614t-614 -254q-362 0 -612 254q-256 256 -256 614zM430 870q0 -274 194 -470q194 -192 468 -192q276 0 468 192q194 194 194 470q0 274 -194 468t-468 194q-272 0 -468 -194 q-194 -198 -194 -468zM902 1316q0 66 52 118q50 48 126 48q72 0 126 -48q52 -52 52 -118q0 -70 -52 -118q-54 -48 -126 -48q-76 0 -126 48q-52 48 -52 118zM934 276v772h290v-772h-290z" />
<glyph unicode="l" horiz-adv-x="1960" d="M154 124l570 1544l336 -120l-568 -1546zM600 1160l154 416l216 -78l-152 -416zM1062 2v1642h358v-1642h-358zM1126 1118h232v446h-232v-446zM1510 2v1642h358v-1642h-358zM1570 1120h232v420h-232v-420z" />
<glyph unicode="m" horiz-adv-x="2122" d="M140 2v1358q0 146 122 146h56q38 0 62 16q16 16 26 62l10 46q18 74 42 90q18 16 114 16h382q78 0 100 -16q24 -18 38 -78l12 -50q14 -62 30 -74q18 -12 84 -12h684q66 0 94 -30q26 -32 26 -114v-1360h-1882zM188 64l1786 -8v1304q0 88 -74 88h-1632q-80 0 -80 -88v-1296z M1204 936v170h250v248h166v-248h250v-170h-250v-246h-166v246h-250z" />
<glyph unicode="n" horiz-adv-x="2122" d="M140 2v1358q0 146 122 146h56q38 0 62 16q16 16 26 62l10 46q18 74 42 90q18 16 114 16h382q78 0 100 -16q24 -18 38 -78l12 -50q14 -62 30 -74q18 -12 84 -12h684q66 0 94 -30q26 -32 26 -114v-1360h-1882zM188 64l1786 -8v1304q0 88 -74 88h-1632q-80 0 -80 -88v-1296z M1188 988v196h608v-196h-608z" />
<glyph unicode="r" horiz-adv-x="2122" d="M282 2q18 86 27 165t25 169q6 42 18 -8t14 -44t2 21q0 23 -4 65q-6 70 -6 82q0 34 15 65t29 61h581h581l54 -32l132 -544h-1468zM294 278v1416h1728v-1416h-1656l-12 50l-16 26l-12 -76h-32zM360 434l6 -156h1316l-18 44h284v1326h-1580l-2 -1168l-6 -14v-32zM558 2h44 v114h-44v-114zM648 998q0 146 104 251t252 105t252 -105t104 -251q0 -150 -104 -254t-252 -104t-252 104t-104 254zM1464 2h42v114h-42v-114z" />
<glyph unicode="s" horiz-adv-x="1964" d="M140 2v1518h1732v-1518h-1732zM212 70h1584v1412h-1584v-1412zM324 382v88l530 -2v-84zM324 574v84h688v-84h-688zM324 760v84h858v-84h-858zM1374 1078v314h362v-314h-362z" />
<glyph unicode="t" horiz-adv-x="1906" d="M290 1362v326h1526v-326h-540v-1360h-446v1360h-540z" />
<glyph unicode="u" horiz-adv-x="1906" d="M290 1362v326h1526v-326h-540v-1360h-446v1360h-540zM1350 848v92h184v184h96v-184h186v-92h-186v-184h-96v184h-184z" />
<glyph unicode="x" horiz-adv-x="1962" d="M294 2v1518h1576v-1518h-1576zM336 50h1490v1242h-1490v-1242zM340 1320h138v140h-138v-140zM746 184q12 98 64 182q50 84 202 226q120 112 150 154q38 60 38 112q0 60 -34 92q-32 34 -88 34t-90 -34q-36 -38 -40 -114l-180 18q14 150 102 214q80 64 212 64 q140 0 220 -74q78 -76 78 -188q0 -68 -22 -120q-28 -66 -72 -122q-32 -40 -118 -120q-80 -72 -108 -104q-24 -26 -38 -50h358v-170h-634zM1680 1320h138v140h-138v-140z" />
<glyph unicode="&#x2000;" horiz-adv-x="868" />
<glyph unicode="&#x2001;" horiz-adv-x="1736" />
<glyph unicode="&#x2002;" horiz-adv-x="868" />
<glyph unicode="&#x2003;" horiz-adv-x="1736" />
<glyph unicode="&#x2004;" horiz-adv-x="578" />
<glyph unicode="&#x2005;" horiz-adv-x="434" />
<glyph unicode="&#x2006;" horiz-adv-x="289" />
<glyph unicode="&#x2007;" horiz-adv-x="289" />
<glyph unicode="&#x2008;" horiz-adv-x="217" />
<glyph unicode="&#x2009;" horiz-adv-x="347" />
<glyph unicode="&#x200a;" horiz-adv-x="96" />
<glyph unicode="&#x202f;" horiz-adv-x="347" />
<glyph unicode="&#x205f;" horiz-adv-x="434" />
<glyph unicode="&#x25fc;" horiz-adv-x="1520" d="M0 0v1520h1520v-1520h-1520z" />
</font>
</defs>
</svg>
